<svg version="1.1" id="Layer_1" xmlns="http://www.w3.org/2000/svg" xmlns:xlink="http://www.w3.org/1999/xlink" x="0px" y="0px" viewBox="0 0 410.6 166.7">
	<path id="Blue" fill-rule="evenodd" clip-rule="evenodd" fill="#63BFE0" d="M115.8,27.8C110.2,17,98,13.2,101.4,27.9
		c1.7,8.3,3,17.7,4,27.7c0.5,8.3,0.8,16.8,0.9,25.2c1.4-9.1,2.5-18.1,3.3-26.8c0.5-12.4,0.1-23.1-1-31.6c2.6,9.2,4.6,20.4,5.9,33.2
		c0.3,9.3,0.3,18.6,0,27.9l0,0c1.5-8.2,2.7-16.3,3.5-24.1C118.7,49.8,120.5,36.9,115.8,27.8z M137.8,118.7c-1.6-1.1-3.7-2.5-6.2-4.2
		c-2.7-1.7-5.8-3.6-9.5-5.8c2.7,3.1,5.1,5.9,7.1,8.3c2.8,3.6,4.8,6.5,6.2,8.8c-2.2-1.1-5-2.7-8.7-4.6c-2.7-1.5-5.9-3.3-9.6-5.3
		c6.2,6.7,10.5,11.6,13.4,15.2C134.6,135.9,142.8,122.3,137.8,118.7z M23.9,142.4c11.1-4.3,23.9-10.2,37.6-17.3
		c7.9-4.5,15.6-9.1,23-13.7c-9.1,3.7-18.6,7.4-28.4,10.9c-11.5,3.7-22.6,6.9-32.9,9.4c-22.2,5.4-5.7,23.7,14.4,16.3
		c16.7-7.6,34.9-17.8,52.8-29.5c-8.1,4-16.7,7.9-25.7,11.6C50.3,135.5,36.4,139.6,23.9,142.4z"></path>
	<path fill-rule="evenodd" clip-rule="evenodd" fill="#F8C025" d="M90.2,160.8c2-4.9,3.9-11.1,5.9-18.7c1.3-5.8,2.5-12.2,3.6-19.3
		c-2.3,6.6-4.6,12.7-6.9,18.3c-2.8,6.2-5.5,11.6-8.1,16.3c-5.7,11.1,12.2,6.9,15.9-4.2c1.4-4.2,2.9-9.1,4.4-14.8
		c1.2-5.4,2.3-11.4,3.3-18c-2.4,7.4-4.8,14.3-7.3,20.5C97.2,148.9,93.5,155.5,90.2,160.8z M65.3,76.7c-14.4-11.5-28.8-22.8-42-32.9
		C38.2,51.7,54.2,60.9,70,70.3c9,5.6,17.2,10.9,24.7,15.8C82,73.9,67.7,60.8,52.9,48C47,42.9,41.2,36.7,33.7,34.1
		C13.8,27.3-0.9,48.9,22.4,60.7c11.8,6.1,24.2,12.6,36.5,19c10.1,5.4,19.6,10.4,28.3,15C80.5,89.1,73.2,83.1,65.3,76.7z M142,66.4
		c-4,5.7-10.4,12.9-19.6,21.7c4.6-2.7,8.5-5.1,12-7.4c4.6-3.3,8-6.2,10.4-8.5c-2.1,3.7-5.2,8-9.5,13.1c-3.3,3.4-7,7.1-11.3,11
		c4.9-3.1,9.2-5.9,12.8-8.6c3.3-2.5,5.9-4.8,7.9-6.9C149.7,75.7,146.8,61.4,142,66.4z"></path>
	<path id="Orange" fill-rule="evenodd" clip-rule="evenodd" fill="#F38B2E" d="M143.4,93.1c-2.3,0.8-5.2,1.6-8.7,2.4
		c-3.4,0.8-7.3,1.6-11.9,2.4c4.7,0.5,8.8,0.9,12.2,1.2c4.2,0.4,7.4,0.7,9.8,0.8c-2.6,1.2-6.1,2.5-10.7,4c-3.7,1-8.1,2-13.2,3
		c4.4,0.3,8.1,0.6,11.4,0.7c3.3,0.1,6.1,0.1,8.3,0C148.3,107.1,149.8,91,143.4,93.1z M57.3,161.6c5.9-5.6,12.6-12.8,19.8-21.7
		c4.4-6,8.9-12.4,13.4-19.1c-13.6,14.2-26.9,26.3-38.7,35.5c-12.3,10.5,7.1,15.1,17.5,4.1c4.5-4.5,9.3-9.8,14.4-16
		c4.8-6.4,9.7-13.3,14.5-20.8c-5.3,6.3-10.8,12.3-16.3,18C73,149.7,64.7,156.4,57.3,161.6z M89.2,33.8c-3.9-8.9-6.8-16.7-15.9-21
		c-11.2-5.3-25.1-3.8-12.7,14c12.6,18.1,24.7,38,35.2,57.2c-2.7-8.7-5.8-17.7-9.1-26.9c-6.1-15.2-12.5-29-18.6-40.5
		c8.2,10.9,16.6,24,24.7,38.1c4.4,8.7,8.4,17.1,12,25.2c-2.6-9.7-5.6-19.6-8.9-29.5C93.7,44.6,91.5,39,89.2,33.8z"></path>
	<path id="Green" fill-rule="evenodd" clip-rule="evenodd" fill="#95C640" d="M57.4,98.5c11.5-0.3,22.3-0.6,32.1-1.1
		c-8.6-1.4-18-3-28.1-4.7c-12.9-2.3-26.1-4.8-39-7.4c-31.1-7.1-28.8,26,0.4,27.9c12.2-0.1,24.7-0.6,37.2-1.5
		c10.1-0.9,19.6-1.9,28.4-3.1c-9.6-0.6-20.2-1.5-31.5-2.6c-17.8-2.2-35.4-5-51.4-8.2C21.5,98.5,39.3,98.7,57.4,98.5z M133.5,44.9
		c-0.5,6.3-2,14.1-4.6,23.1c-2.2,6.3-4.9,12.8-7.9,19.6c5.4-9.1,17.8-26.8,16.5-38.2c-1-8.5-7.9-17-9.2-8.1
		c-0.7,5.2-1.9,11.3-3.8,18.1c-2.1,6.4-4.6,13.2-7.5,20.4c3.4-5.5,6.5-10.8,9.2-15.7C129.7,56.4,132.2,50,133.5,44.9z M115.8,117.1
		c0.7,5.4,1.2,10.3,1.5,14.7c0.1,6.2,0,11.3-0.4,15.4c-0.7-3.2-1.8-7.3-3.4-12.5c-1.2-3.5-2.6-7.3-4.3-11.6c0.7,5.6,1.2,10.6,1.5,15
		c0.2,4.5,0.2,8.3,0,11.6c-0.1,7.4,13-1,11.7-9.4C121.4,134.8,119.3,127.2,115.8,117.1z"></path>
	<path id="green_dot" fill="#95C640" d="M301.7,70.4c1.1-1.1,1.7-2.5,1.7-4.1c0-1.6-0.6-3-1.7-4.1c-1.1-1.1-2.5-1.7-4.1-1.7
		c-1.6,0-3,0.6-4.1,1.7c-1.1,1.1-1.7,2.5-1.7,4.1c0,1.6,0.6,3,1.7,4.1c1.1,1.1,2.5,1.7,4.1,1.7C299.2,72.1,300.6,71.5,301.7,70.4z"></path>
	<path id="welight_text" fill="#657478" d="M253.3,76.3c-5.9,0-10.7,1.9-14.4,5.7c-4,4.2-6,9.3-6,15.3c0,6.4,2,11.6,6.1,15.8
		c4.2,4.2,9.4,6.3,15.7,6.3c5.8,0,11-1.7,15.4-5c0.5-0.4,0.5-0.8,0-1.3l-4.3-4.4c-0.4-0.4-0.8-0.4-1.4,0c-2.7,1.9-5.7,2.9-9.1,2.9
		c-3.8,0-7-1.1-9.5-3.2c-5.5-5.1-5.6-17.1,0.1-22.1c2.1-1.8,4.5-2.8,7.3-2.8c3,0,5.5,1,7.6,2.9c2.2,1.9,3.4,4.3,3.4,7.1h-13.1
		c-5.4,0-5.4,7.4,0,7.4h20.9c0.6,0,0.9-0.3,0.9-0.9l0.1-2c0.3-6.2-1.5-11.4-5.4-15.5C263.6,78.3,258.9,76.3,253.3,76.3z M285.6,61.4
		h-6.4c-0.6,0-0.9,0.3-0.9,0.9v55.3c0,0.6,0.3,0.9,0.9,0.9h6.4c0.6,0,0.9-0.3,0.9-0.9V62.3C286.5,61.7,286.2,61.4,285.6,61.4z
		 M227.3,77.1h-6.4c-0.6,0-0.9,0.3-0.9,0.9v23.6c0,3-0.8,5.3-2.5,7.1c-1.7,1.8-3.8,2.7-6.4,2.7c-2.5,0-4.5-0.8-6.1-2.5
		c-1.8-1.9-2.8-4.8-2.8-8.7V78c0-0.6-0.3-0.9-0.9-0.9h-6.4c-0.6,0-0.9,0.3-0.9,0.9v22.3c0,3.9-0.9,6.8-2.8,8.7
		c-1.6,1.7-3.7,2.5-6.2,2.5c-2.6,0-4.7-0.9-6.4-2.7c-1.7-1.8-2.5-4.2-2.5-7.1V78c0-0.6-0.3-0.9-0.9-0.9h-6.4c-0.6,0-0.9,0.3-0.9,0.9
		v24.8c0,5.3,1.9,9.4,5.6,12.4c3.3,2.7,7.1,4.1,11.6,4.1c2.8,0,5.5-0.7,8.1-2c2.2-1.2,3.8-2.5,4.7-3.8c3.2,3.9,7.6,5.8,13.2,5.8
		c4.2,0,8-1.4,11.2-4.1c3.8-3.1,5.7-7.3,5.7-12.4V78C228.2,77.4,227.9,77.1,227.3,77.1z M300.8,77.1h-6.4c-0.6,0-0.9,0.3-0.9,0.9
		v39.6c0,0.6,0.3,0.9,0.9,0.9h6.4c0.6,0,0.9-0.3,0.9-0.9V78C301.7,77.4,301.4,77.1,300.8,77.1z M370,76.3c-4.4,0-7.9,1.2-10.5,3.6
		V62.3c0-0.6-0.3-0.9-0.9-0.9h-6.4c-0.6,0-0.9,0.3-0.9,0.9v55.3c0,0.6,0.3,0.9,0.9,0.9h6.4c0.6,0,0.9-0.3,0.9-0.9V96.9
		c0-1.5,0.1-2.9,0.2-4c0.1-1.1,0.3-2.1,0.6-2.9c0.3-0.8,0.6-1.5,1.1-2.1c0.4-0.6,1-1.2,1.7-1.7c1.6-1.4,3.5-2,5.7-2
		c3.2,0,5.7,1.2,7.6,3.5c1.1,1.4,1.7,4.2,1.7,8.3v21.5c0,0.6,0.3,0.9,0.9,0.9h6.4c0.6,0,0.9-0.3,0.9-0.9V95.1c0-5.4-1.4-9.7-4.1-13
		C378.6,78.2,374.7,76.3,370,76.3z M409.7,77.1H400v-8c0-0.6-0.3-0.9-0.9-0.9h-6.4c-0.6,0-0.9,0.3-0.9,0.9v36.3
		c0,9.3,4.5,13.9,13.4,13.9l4.8,0v-7.1h-4.6c-3.6,0-5.3-2.5-5.3-7.4V84.5h9.7c0.6,0,0.9-0.3,0.9-0.9V78
		C410.6,77.4,410.3,77.1,409.7,77.1z M325.7,76.3c-6.1,0.4-10.8,2.4-14.1,7.1c-2.8,3.9-4.2,8.7-4.2,14.4c0,6,1.5,10.9,4.4,14.8
		c3.4,4.5,8.1,6.7,14,6.7c4.8,0,8.6-1.2,11.5-3.6v2.4c0,7.7-3.7,11.6-11.2,11.6h-3.6c-0.9,0-1.6,0.7-1.6,1.6v4.4
		c0,0.9,0.7,1.6,1.6,1.6h3.6c12.7,0.1,19.4-8.2,19.4-20.5V94.1C345.5,82.6,336.7,75.6,325.7,76.3z M337.3,105.4
		c-1.5,3.9-5.2,5.9-11,5.9c-2.8,0-5.1-0.9-6.9-2.7c-2.4-2.3-3.6-5.9-3.6-10.9c0-16.9,21.5-18.8,21.5-1.7V105.4z"></path>
</svg>
